<svg width="47" height="51" viewBox="0 0 47 51" fill="none" xmlns="http://www.w3.org/2000/svg">
<path d="M45.6498 12.886L23.5017 0.815999C23.3784 0.74958 23.2409 0.714844 23.1013 0.714844C22.9617 0.714844 22.8242 0.74958 22.7009 0.815999L0.552773 12.886C0.415157 12.9582 0.299603 13.067 0.218549 13.2006C0.137487 13.3344 0.0940001 13.4879 0.0927734 13.6447V37.7849C0.0931823 37.9408 0.135392 38.0938 0.214895 38.2274C0.294407 38.361 0.408231 38.4703 0.544255 38.5436L22.6924 50.6136C22.8157 50.6801 22.9532 50.7148 23.0928 50.7148C23.2324 50.7148 23.3699 50.6801 23.4931 50.6136L45.6413 38.5436C45.7773 38.4703 45.8911 38.361 45.9706 38.2274C46.0502 38.0938 46.0923 37.9408 46.0928 37.7849V13.6447C46.0932 13.4896 46.0522 13.3373 45.9743 13.2038C45.8963 13.0703 45.7842 12.9605 45.6498 12.886ZM23.0928 2.55754L43.452 13.6447L37.4891 16.895L17.8368 5.41987L23.0928 2.55754ZM2.73351 13.6447L9.14796 10.1961L28.7917 21.6282L23.0928 24.732L2.73351 13.6447ZM16.0735 6.37685L35.7257 17.852L30.555 20.6712L10.9113 9.18744L16.0735 6.37685ZM31.688 22.0076L36.322 19.4901V25.9217L34.5331 24.1285C34.4337 24.0285 34.3116 23.955 34.1773 23.9142C34.0432 23.8735 33.9011 23.867 33.7637 23.8951C33.6264 23.9233 33.4981 23.9853 33.3901 24.0755C33.2821 24.1659 33.1978 24.2817 33.1446 24.413L31.688 27.965V22.0076ZM1.79648 15.0845L22.2409 26.2321V48.4152L1.79648 37.2676V15.0845ZM23.9446 48.4152V26.2321L29.9843 22.9387V32.3016C29.9941 32.4946 30.0678 32.6788 30.1935 32.8243C30.3191 32.97 30.4895 33.0685 30.6772 33.1044C30.8649 33.1401 31.059 33.1111 31.2284 33.0218C31.3978 32.9324 31.5327 32.7882 31.6113 32.612L34.218 26.2407L36.552 28.5858C36.6712 28.7074 36.8234 28.7903 36.9893 28.824C37.1552 28.8577 37.3272 28.8406 37.4835 28.7749C37.6398 28.7092 37.7732 28.598 37.8667 28.4552C37.9602 28.3125 38.0097 28.1449 38.0087 27.9736V18.559L44.3806 15.1104V37.2676L23.9446 48.4152Z" fill="black"/>
</svg>
