<svg width="52" height="51" viewBox="0 0 52 51" fill="none" xmlns="http://www.w3.org/2000/svg">
<path d="M17.2998 16.0891L16.1697 22.6781C16.1103 22.9874 16.1396 23.3073 16.2542 23.6006C16.3689 23.8939 16.5641 24.1484 16.8172 24.3345C17.0661 24.5217 17.3622 24.6352 17.672 24.6623C17.9817 24.6894 18.2929 24.629 18.5703 24.4879L24.6786 21.4204L30.4692 24.4511C30.7456 24.6007 31.0584 24.6693 31.3718 24.6489C31.6852 24.6285 31.9865 24.5199 32.2414 24.3356C32.4962 24.1513 32.6943 23.8987 32.813 23.6067C32.9317 23.3146 32.9662 22.995 32.9125 22.6842L31.7825 16.1198L36.5347 11.4511C36.7581 11.2331 36.9163 10.9567 36.9913 10.6532C37.0663 10.3496 37.0552 10.031 36.9592 9.73339C36.8632 9.43583 36.6862 9.17121 36.4481 8.96952C36.2101 8.76783 35.9206 8.63711 35.6124 8.59219L28.9849 7.62287L26.0285 1.63515C25.8884 1.35628 25.6734 1.12233 25.4079 0.959712C25.1423 0.797097 24.8368 0.7123 24.5258 0.714902C24.2159 0.713445 23.9117 0.798782 23.6473 0.961335C23.383 1.12389 23.169 1.35722 23.0293 1.63515L20.0668 7.62287L13.4393 8.57992C13.1281 8.62212 12.8351 8.75173 12.5939 8.95384C12.3528 9.15595 12.1734 9.42234 12.0764 9.72234C11.9794 10.0223 11.9687 10.3438 12.0456 10.6496C12.1224 10.9554 12.2837 11.2333 12.5109 11.4511L17.2998 16.0891ZM20.7998 9.37746C20.9436 9.35333 21.0795 9.2951 21.1964 9.20761C21.3132 9.12011 21.4076 9.00588 21.4717 8.8744L24.5258 2.73944L27.58 8.8744C27.6458 9.00817 27.743 9.12387 27.8633 9.2115C27.9835 9.29914 28.1232 9.3561 28.2702 9.37746L35.0382 10.3591L30.1516 15.1075C30.044 15.2113 29.9633 15.3398 29.9165 15.482C29.8697 15.6242 29.8581 15.7758 29.8828 15.9235L31.0373 22.6412L25.1183 19.5431C24.9889 19.4763 24.8455 19.4415 24.6999 19.4415C24.5544 19.4415 24.411 19.4763 24.2815 19.5431L18.0511 22.6842L19.2117 15.9357C19.232 15.7884 19.2165 15.6384 19.1665 15.4984C19.1165 15.3585 19.0335 15.2328 18.9246 15.1321L14.0379 10.3836L20.7998 9.37746Z" fill="black"/>
<path d="M50.1806 28.0155C49.8738 27.6595 49.5 27.3679 49.0807 27.1574C48.6614 26.9468 48.2049 26.8215 47.7373 26.7885C47.2697 26.7562 46.8005 26.8189 46.3576 26.9728C45.9147 27.1267 45.5073 27.3687 45.1596 27.6842L36.6996 35.3161C36.6776 35.1465 36.6449 34.9785 36.6019 34.8131C36.4597 34.2815 36.2049 33.787 35.8549 33.3635C35.5049 32.9399 35.068 32.5973 34.5739 32.3591C33.0041 31.6965 30.8235 32.0032 28.7161 32.31C27.4836 32.5524 26.2246 32.6308 24.9717 32.5431C24.4142 32.4026 23.875 32.1967 23.3653 31.9296C21.7649 31.2118 19.572 30.2302 15.4917 31.1321C13.3851 31.6786 11.45 32.7506 9.866 34.2486V32.0032C9.866 31.7592 9.76947 31.5251 9.59764 31.3525C9.42581 31.18 9.19276 31.083 8.94976 31.083H1.00901C0.766012 31.083 0.532962 31.18 0.361134 31.3525C0.189305 31.5251 0.0927734 31.7592 0.0927734 32.0032V49.7946C0.0927734 50.0387 0.189305 50.2728 0.361134 50.4453C0.532962 50.6179 0.766012 50.7149 1.00901 50.7149H8.94976C9.19276 50.7149 9.42581 50.6179 9.59764 50.4453C9.76947 50.2728 9.866 50.0387 9.866 49.7946V48.5185C11.0877 48.8069 16.634 50.1014 20.7326 50.1014C25.0084 50.1014 30.2371 49.1198 33.4561 47.7149C39.3873 45.1321 49.1544 33.9848 49.9485 33.083C50.6364 32.4349 51.0456 31.5429 51.0889 30.5966C51.1323 29.6503 50.8064 28.7243 50.1806 28.0155ZM8.03352 48.8744H1.92525V32.9235H8.03352V48.8744ZM48.6779 31.7517L48.5924 31.8376C48.4886 31.9542 38.3977 43.5615 32.7109 46.0339C29.7179 47.3406 24.7824 48.2609 20.7326 48.2609C16.4568 48.2609 10.147 46.6903 10.0859 46.6781C10.0129 46.6691 9.93903 46.6691 9.866 46.6781V36.8621C10.5318 36.0953 12.8835 33.6045 15.8888 32.9419C19.3827 32.175 21.1052 32.9419 22.6078 33.6229C23.2561 33.9436 23.9414 34.1826 24.648 34.3345C26.0906 34.4712 27.5453 34.3968 28.9666 34.1137C30.7441 33.8683 32.7598 33.5861 33.8532 34.0462C34.0883 34.1819 34.2938 34.3637 34.4575 34.5808C34.6212 34.7979 34.7397 35.0459 34.8061 35.31C34.8948 35.6721 34.8962 36.0503 34.8101 36.4131C34.7241 36.7759 34.5531 37.1128 34.3113 37.3959C32.9186 39.2732 24.4464 42.083 20.9708 41.8069C20.7278 41.7882 20.4874 41.8672 20.3024 42.0265C20.1174 42.1859 20.003 42.4125 19.9843 42.6566C19.9657 42.9007 20.0444 43.1422 20.203 43.328C20.3617 43.5138 20.5873 43.6287 20.8303 43.6474C21.0197 43.6474 21.2274 43.6474 21.4412 43.6474C25.2344 43.6474 32.4788 41.402 35.1298 39.1566L35.197 39.1198L46.3385 29.0585C46.6733 28.7589 47.1124 28.6046 47.5601 28.629C47.7944 28.6433 48.0234 28.705 48.2334 28.8104C48.4433 28.9158 48.6298 29.0628 48.7818 29.2425C49.0955 29.5909 49.2604 30.0491 49.2409 30.5184C49.2215 30.9878 49.0193 31.4307 48.6779 31.7517Z" fill="black"/>
</svg>
