<svg width="39" height="51" viewBox="0 0 39 51" fill="none" xmlns="http://www.w3.org/2000/svg">
<path d="M37.8695 18.9657L34.6129 15.4091L35.6319 10.719C35.7264 10.303 35.4743 9.88705 35.0646 9.75186L30.4528 8.27516L28.9716 3.70985C28.835 3.30428 28.4148 3.06509 27.9946 3.14829L23.2567 4.15702L19.664 0.93323C19.3488 0.642048 18.8551 0.642048 18.5399 0.93323L14.9471 4.15702L10.2093 3.14829C9.78906 3.05469 9.36886 3.30428 9.23229 3.70985L7.74055 8.27516L3.11826 9.75186C2.70856 9.88705 2.46695 10.303 2.55099 10.719L3.56998 15.4091L0.313383 18.9657C0.019237 19.2776 0.019237 19.7664 0.313383 20.0784L3.56998 23.635L2.55099 28.3251C2.45644 28.741 2.70856 29.157 3.11826 29.2922L7.73004 30.7689L7.91914 31.3617L2.43543 46.4095C2.30937 46.7423 2.41442 47.1167 2.69806 47.3351C2.97119 47.5534 3.35988 47.5846 3.66453 47.3975L9.2638 44.0073L11.3753 50.1533C11.4909 50.4861 11.8061 50.7148 12.1632 50.7148H12.1737C12.5309 50.7148 12.8461 50.4965 12.9616 50.1637L17.6575 37.3101L18.5399 38.1004C18.6975 38.246 18.8971 38.3188 19.1072 38.3188C19.3173 38.3188 19.5064 38.246 19.6745 38.1004L20.5569 37.3101L25.2527 50.1637C25.3683 50.4965 25.6939 50.7148 26.0406 50.7148H26.0511C26.4083 50.7148 26.7234 50.4861 26.839 50.1533L28.9505 44.0073L34.5498 47.3975C34.8545 47.5846 35.2432 47.5534 35.5163 47.3351C35.7894 47.1167 35.8945 46.7423 35.7789 46.4095L30.2847 31.3721L30.4738 30.7793L35.0856 29.3026C35.4953 29.1674 35.7369 28.7514 35.6529 28.3355L34.6339 23.6454L37.8905 20.0888C38.1636 19.7664 38.1636 19.288 37.8695 18.9657ZM12.1842 47.3767L10.5034 42.489C10.4194 42.2498 10.2303 42.0626 9.98866 41.969C9.74704 41.8754 9.48441 41.9066 9.2638 42.0418L4.8096 44.7352L8.74905 33.9511L9.20077 35.3342C9.33734 35.7398 9.75755 35.979 10.1778 35.8958L14.9156 34.8871L16.2813 36.1142L12.1842 47.3767ZM33.3627 44.7456L28.9085 42.0522C28.6879 41.917 28.4253 41.8962 28.1837 41.9794C27.9421 42.0626 27.753 42.2498 27.6689 42.4994L25.9881 47.3871L21.87 36.1246L23.2357 34.8974L27.9736 35.9062C28.3938 35.9998 28.814 35.7502 28.9505 35.3446L29.4023 33.9615L33.3627 44.7456ZM33.0896 22.8446C32.911 23.0422 32.8375 23.3126 32.89 23.5726L33.8355 27.9507L29.5388 29.3234C29.2867 29.4066 29.0766 29.6042 28.9926 29.8642L28.5829 31.1121L27.6059 34.1175L23.1832 33.1816C22.9206 33.1296 22.6474 33.2024 22.4478 33.3792L19.0967 36.3742L15.7455 33.3688C15.5879 33.2336 15.3883 33.1504 15.1782 33.1504C15.1152 33.1504 15.0627 33.1608 14.9996 33.1712L10.577 34.1071L9.59997 31.1017L9.19027 29.8538C9.10622 29.6042 8.90663 29.3962 8.644 29.313L4.35787 27.9507L5.30334 23.5726C5.35587 23.3126 5.28233 23.0422 5.10374 22.8446L2.07826 19.5272L5.11425 16.2098C5.29284 16.0123 5.36637 15.7419 5.31385 15.4819L4.36838 11.1038L8.66501 9.73106C8.91713 9.64786 9.12723 9.45029 9.21128 9.1903L10.5875 4.93697L15.0101 5.87291C15.2728 5.92491 15.5459 5.85212 15.7455 5.67533L19.0967 2.68032L22.4478 5.68573C22.6474 5.86251 22.9206 5.93531 23.1832 5.88331L27.6059 4.94737L28.9926 9.2007C29.0766 9.45029 29.2762 9.65826 29.5388 9.74146L33.8355 11.1142L32.89 15.4923C32.8375 15.7523 32.911 16.0227 33.0896 16.2202L36.1151 19.5272L33.0896 22.8446Z" fill="black"/>
<path d="M19.0967 7.46399C12.1423 7.46399 6.49048 13.0588 6.49048 19.9432C6.49048 26.8276 12.1423 32.4224 19.0967 32.4224C26.0512 32.4224 31.703 26.8276 31.703 19.9432C31.703 13.0588 26.0512 7.46399 19.0967 7.46399ZM19.0967 30.7585C13.0772 30.7585 8.17131 25.902 8.17131 19.9432C8.17131 13.9844 13.0772 9.12788 19.0967 9.12788C25.1162 9.12788 30.0221 13.9844 30.0221 19.9432C30.0221 25.902 25.1162 30.7585 19.0967 30.7585Z" fill="black"/>
<path d="M23.7926 13.766L16.5756 20.8375L14.401 18.7057C13.7497 18.0713 12.6886 18.0713 12.0268 18.7057L10.6927 20.0056C10.3775 20.3176 10.1989 20.7335 10.1989 21.1807C10.1989 21.6279 10.3775 22.0439 10.6927 22.3558L15.3885 26.9523C15.7141 27.2747 16.1449 27.4307 16.5756 27.4307C17.0063 27.4307 17.437 27.2747 17.7627 26.9523L27.501 17.4265C27.8161 17.1146 27.9947 16.6986 27.9947 16.2514C27.9947 15.8043 27.8161 15.3883 27.501 15.0763L26.1668 13.7764C25.5155 13.1316 24.444 13.1316 23.7926 13.766ZM18.5085 23.8845L16.5756 25.7668L11.8903 21.1807L13.2244 19.8912L15.9873 22.595C16.3129 22.9174 16.8382 22.9174 17.1639 22.595L24.9797 14.9515L24.3914 14.3587L26.3139 16.241L18.5085 23.8845Z" fill="black"/>
</svg>
