<svg width="51" height="51" viewBox="0 0 51 51" fill="none" xmlns="http://www.w3.org/2000/svg">
<path d="M40.95 27.619C40.479 27.1482 39.8403 26.8836 39.1742 26.8836C38.5082 26.8836 37.8695 27.1482 37.3985 27.619L35.0299 29.9876C35.0249 29.9876 35.0232 29.9985 35.019 30.0026L33.8469 31.1689C33.4594 31.5588 32.9987 31.8683 32.4913 32.0795C31.9837 32.2906 31.4394 32.3994 30.8898 32.3994C30.3401 32.3994 29.7959 32.2906 29.2883 32.0795C28.7808 31.8683 28.3201 31.5588 27.9327 31.1689L19.644 22.8803C19.254 22.4927 18.9445 22.0318 18.7334 21.5242C18.5221 21.0165 18.4135 20.4721 18.4135 19.9223C18.4135 19.3725 18.5221 18.8281 18.7334 18.3204C18.9445 17.8128 19.254 17.3519 19.644 16.9644L20.8111 15.7922L20.822 15.7855L23.1906 13.4178C23.4238 13.1846 23.6089 12.9077 23.7351 12.6029C23.8614 12.2982 23.9264 11.9715 23.9264 11.6416C23.9264 11.3118 23.8614 10.9851 23.7351 10.6803C23.6089 10.3756 23.4238 10.0987 23.1906 9.86544L16.0841 2.75479C15.6056 2.29791 14.9695 2.04297 14.3079 2.04297C13.6463 2.04297 13.0102 2.29791 12.5317 2.75479L10.164 5.12249L10.1581 5.1317C7.33825 7.95704 5.68469 11.7399 5.52616 15.7285C5.36763 19.7171 6.71572 23.6194 9.30249 26.6596V29.5773C9.18192 29.625 9.06555 29.6736 8.95168 29.723L6.72966 27.501C6.5697 27.3497 6.35789 27.2655 6.13773 27.2655C5.91757 27.2655 5.70577 27.3497 5.54581 27.501L1.99593 31.0509C1.83897 31.2078 1.75079 31.4208 1.75079 31.6428C1.75079 31.8648 1.83897 32.0777 1.99593 32.2347L4.21795 34.4567C4.16772 34.5706 4.11999 34.687 4.07227 34.8075H0.930124C0.708072 34.8075 0.495121 34.8958 0.338106 35.0528C0.181099 35.2098 0.0928879 35.4227 0.0928879 35.6448V40.6682C0.0928879 40.8902 0.181099 41.1032 0.338106 41.2602C0.495121 41.4172 0.708072 41.5054 0.930124 41.5054H4.07227C4.11999 41.626 4.16772 41.7424 4.21795 41.8554L1.99593 44.0783C1.83897 44.2352 1.75079 44.4482 1.75079 44.6702C1.75079 44.8922 1.83897 45.1051 1.99593 45.2621L5.54581 48.812C5.70281 48.969 5.91573 49.0571 6.13773 49.0571C6.35974 49.0571 6.57265 48.969 6.72966 48.812L8.95168 46.59C9.06555 46.6394 9.18192 46.6879 9.30249 46.7357V49.8778C9.30249 50.0998 9.39073 50.3128 9.54771 50.4698C9.7047 50.6268 9.91769 50.715 10.1397 50.715H15.1631C15.3852 50.715 15.5982 50.6268 15.7552 50.4698C15.9121 50.3128 16.0004 50.0998 16.0004 49.8778V46.7357C16.1209 46.6879 16.2373 46.6394 16.3512 46.59L18.5732 48.812C18.7332 48.9633 18.9449 49.0475 19.1651 49.0475C19.3853 49.0475 19.5971 48.9633 19.7571 48.812L23.3069 45.2621C23.4639 45.1051 23.5521 44.8922 23.5521 44.6702C23.5521 44.4482 23.4639 44.2352 23.3069 44.0783L21.0849 41.8554C21.1351 41.7424 21.1829 41.626 21.2306 41.5054H24.1475C27.1856 44.0965 31.0885 45.4475 35.0782 45.289C39.068 45.1306 42.8516 43.4744 45.6745 40.6506L45.6854 40.6439L48.0531 38.2754C48.2864 38.0421 48.4715 37.7653 48.5977 37.4605C48.7239 37.1557 48.789 36.8291 48.789 36.4992C48.789 36.1693 48.7239 35.8426 48.5977 35.5379C48.4715 35.2331 48.2864 34.9562 48.0531 34.723L40.95 27.619ZM13.7172 3.9378C13.8767 3.78559 14.0887 3.70066 14.3092 3.70066C14.5296 3.70066 14.7416 3.78559 14.9011 3.9378L22.005 11.0426C22.1618 11.1996 22.2498 11.4123 22.2498 11.6341C22.2498 11.8559 22.1618 12.0686 22.005 12.2256L20.2301 13.9997L11.9415 5.71107L13.7172 3.9378ZM23.5355 39.831H20.6387C20.4614 39.831 20.2887 39.8872 20.1455 39.9916C20.0023 40.096 19.8959 40.2432 19.8416 40.412C19.7117 40.8308 19.5421 41.2362 19.3351 41.6226C19.2482 41.7814 19.2151 41.9641 19.2407 42.1432C19.2664 42.3224 19.3495 42.4884 19.4774 42.6164L21.5303 44.6702L19.1651 47.0362L17.1114 44.9825C16.9833 44.8543 16.8171 44.7712 16.6378 44.7455C16.4584 44.7198 16.2757 44.7531 16.1168 44.8401C15.7305 45.0477 15.3251 45.2173 14.9061 45.3467C14.7375 45.4011 14.5905 45.5075 14.4862 45.6508C14.382 45.7939 14.3258 45.9666 14.3259 46.1437V49.0406H10.977V46.1437C10.977 45.9666 10.9209 45.7939 10.8166 45.6508C10.7124 45.5075 10.5654 45.4011 10.3968 45.3467C9.9778 45.2173 9.57233 45.0477 9.18611 44.8401C9.0272 44.7531 8.84443 44.7198 8.6651 44.7455C8.48576 44.7712 8.31957 44.8543 8.19147 44.9825L6.13773 47.0362L3.77673 44.6702L5.82963 42.6164C5.95759 42.4884 6.04061 42.3224 6.06628 42.1432C6.09194 41.9641 6.05884 41.7814 5.97196 41.6226C5.7664 41.236 5.59819 40.8306 5.46962 40.412C5.41495 40.2419 5.30728 40.0937 5.16236 39.9892C5.01744 39.8846 4.84288 39.8292 4.6642 39.831H1.76736V36.482H4.6642C4.84146 36.482 5.01414 36.4258 5.15737 36.3214C5.30061 36.2169 5.407 36.0698 5.46125 35.901C5.58982 35.4824 5.75803 35.077 5.96359 34.6903C6.05047 34.5316 6.08356 34.3489 6.0579 34.1697C6.03224 33.9906 5.94921 33.8245 5.82126 33.6965L3.77673 31.6428L6.13773 29.2768L8.19147 31.3305C8.31957 31.4587 8.48576 31.5418 8.6651 31.5674C8.84443 31.5931 9.0272 31.5599 9.18611 31.4728C9.57233 31.2653 9.9778 31.0957 10.3968 30.9663C10.5654 30.9119 10.7124 30.8055 10.8166 30.6622C10.9209 30.519 10.977 30.3464 10.977 30.1693V27.2724H14.3259V30.1693C14.3258 30.3464 14.382 30.519 14.4862 30.6622C14.5905 30.8055 14.7375 30.9119 14.9061 30.9663C15.3251 31.0957 15.7305 31.2653 16.1168 31.4728C16.2757 31.5599 16.4584 31.5931 16.6378 31.5674C16.8171 31.5418 16.9833 31.4587 17.1114 31.3305L19.1651 29.2768L21.5303 31.6428L19.4774 33.6965C19.3495 33.8245 19.2664 33.9906 19.2407 34.1697C19.2151 34.3489 19.2482 34.5316 19.3351 34.6903C19.5421 35.0768 19.7117 35.4822 19.8416 35.901C19.8959 36.0698 20.0023 36.2169 20.1455 36.3214C20.2887 36.4258 20.4614 36.482 20.6387 36.482H23.5355V39.831ZM25.21 40.2136V35.6448C25.21 35.4227 25.1217 35.2098 24.9648 35.0528C24.8078 34.8958 24.5948 34.8075 24.3727 34.8075H21.2306C21.1829 34.687 21.1351 34.5706 21.0849 34.4567L23.3069 32.2347C23.4639 32.0777 23.5521 31.8648 23.5521 31.6428C23.5521 31.4208 23.4639 31.2078 23.3069 31.0509L19.7571 27.501C19.6001 27.344 19.3872 27.2558 19.1651 27.2558C18.9431 27.2558 18.7302 27.344 18.5732 27.501L16.3512 29.723C16.2373 29.6736 16.1209 29.625 16.0004 29.5773V26.4352C16.0004 26.2131 15.9121 26.0002 15.7552 25.8432C15.5982 25.6862 15.3852 25.5979 15.1631 25.5979H10.5952C8.36487 22.9872 7.15439 19.6578 7.18729 16.2242C7.22028 12.7907 8.49439 9.48499 10.7743 6.91753L19.0437 15.1869L18.4577 15.778C17.9117 16.3213 17.4784 16.967 17.1828 17.6783C16.8872 18.3895 16.735 19.1521 16.735 19.9223C16.735 20.6925 16.8872 21.4551 17.1828 22.1664C17.4784 22.8776 17.9117 23.5234 18.4577 24.0666L26.7463 32.3553C27.289 32.9009 27.9342 33.334 28.6447 33.6297C29.3553 33.9253 30.1172 34.0777 30.8869 34.0781C31.6564 34.0786 32.4185 33.9269 33.1294 33.632C33.8402 33.337 34.4858 32.9046 35.0291 32.3595L35.6244 31.7684L43.8946 40.0378C41.3263 42.3181 38.0196 43.5921 34.5852 43.6244C31.1508 43.6567 27.8207 42.4451 25.21 40.2136ZM46.8693 37.0915L45.0952 38.8656L36.8065 30.577L38.5815 28.8037C38.7385 28.6467 38.9514 28.5586 39.1734 28.5586C39.3954 28.5586 39.6083 28.6467 39.7653 28.8037L46.8693 35.9077C47.0263 36.0647 47.1144 36.2776 47.1144 36.4996C47.1144 36.7216 47.0263 36.9345 46.8693 37.0915Z" fill="black"/>
<path d="M12.6514 33.9705C11.8234 33.9705 11.0141 34.2159 10.3257 34.6759C9.63726 35.136 9.10067 35.7897 8.78386 36.5547C8.46705 37.3196 8.38408 38.1612 8.54567 38.9734C8.70717 39.7854 9.10586 40.5313 9.69134 41.1167C10.2767 41.7022 11.0226 42.1009 11.8347 42.2624C12.6468 42.424 13.4885 42.341 14.2534 42.0242C15.0183 41.7074 15.6721 41.1708 16.1321 40.4823C16.5921 39.7939 16.8376 38.9846 16.8376 38.1566C16.8362 37.0468 16.3948 35.9828 15.61 35.198C14.8252 34.4133 13.7612 33.9718 12.6514 33.9705ZM12.6514 40.6683C12.1547 40.6683 11.669 40.521 11.256 40.245C10.8429 39.9691 10.521 39.5768 10.3309 39.1178C10.1408 38.6589 10.091 38.1539 10.1879 37.6666C10.2849 37.1794 10.5241 36.7318 10.8754 36.3806C11.2266 36.0293 11.6742 35.7901 12.1614 35.6932C12.6486 35.5963 13.1536 35.646 13.6126 35.8362C14.0715 36.0262 14.4638 36.3481 14.7398 36.7612C15.0158 37.1742 15.1631 37.6599 15.1631 38.1566C15.1631 38.8227 14.8984 39.4616 14.4274 39.9327C13.9564 40.4037 13.3176 40.6683 12.6514 40.6683Z" fill="black"/>
<path d="M28.6726 0.722624C28.4526 0.692425 28.2296 0.75088 28.0526 0.885123C27.8757 1.01937 27.7593 1.21841 27.7291 1.43846C27.6988 1.65851 27.7573 1.88154 27.8916 2.0585C28.0258 2.23545 28.2249 2.35183 28.4449 2.38203C33.4945 3.08805 38.1765 5.42035 41.7819 9.02566C45.3872 12.6311 47.7195 17.313 48.4255 22.3627C48.453 22.563 48.5521 22.7466 48.7045 22.8796C48.8568 23.0125 49.0522 23.0859 49.2544 23.086C49.2925 23.086 49.3305 23.0835 49.3683 23.0785C49.4772 23.0636 49.5822 23.0274 49.6771 22.9718C49.7721 22.9163 49.8552 22.8427 49.9217 22.755C49.9882 22.6674 50.0367 22.5675 50.0646 22.4611C50.0925 22.3547 50.0991 22.2439 50.0841 22.1349C49.3274 16.7236 46.8281 11.7063 42.9646 7.84265C39.1011 3.97901 34.0839 1.4795 28.6726 0.722624Z" fill="black"/>
<path d="M28.4142 7.46764C32.1318 8.12596 35.5574 9.9107 38.227 12.5803C40.8966 15.25 42.6813 18.6755 43.3396 22.3931C43.3736 22.5872 43.4749 22.7631 43.6256 22.89C43.7765 23.0167 43.9672 23.0863 44.1643 23.0863C44.2129 23.0862 44.2614 23.082 44.3092 23.0737C44.5279 23.0356 44.7224 22.912 44.8501 22.7304C44.9778 22.5487 45.028 22.3237 44.9898 22.105C44.2723 18.0481 42.3251 14.3099 39.412 11.3967C36.4989 8.48346 32.7607 6.53603 28.7039 5.81829C28.5957 5.79927 28.4846 5.80176 28.3773 5.82563C28.27 5.84951 28.1684 5.89428 28.0783 5.95741C27.9883 6.02054 27.9116 6.10078 27.8526 6.19356C27.7936 6.28634 27.7534 6.38983 27.7344 6.49812C27.7154 6.60642 27.7179 6.71741 27.7418 6.82474C27.7656 6.93207 27.8104 7.03365 27.8735 7.12368C27.9367 7.21371 28.0169 7.2904 28.1096 7.34943C28.2025 7.40845 28.306 7.44864 28.4142 7.46764Z" fill="black"/>
<path d="M28.363 12.5806C30.7496 13.1711 32.9297 14.402 34.668 16.1405C36.4064 17.879 37.6371 20.0592 38.2274 22.4458C38.2503 22.5556 38.2951 22.6595 38.3591 22.7517C38.4229 22.8438 38.5047 22.9222 38.5996 22.982C38.6944 23.042 38.8002 23.0822 38.9109 23.1004C39.0215 23.1186 39.1347 23.1144 39.2437 23.088C39.3527 23.0617 39.4552 23.0137 39.5453 22.947C39.6354 22.8802 39.7112 22.796 39.7681 22.6994C39.8251 22.6028 39.862 22.4957 39.8768 22.3846C39.8915 22.2734 39.8838 22.1604 39.8541 22.0523C39.1903 19.3668 37.8057 16.9136 35.8496 14.9575C33.8936 13.0014 31.4404 11.6168 28.7549 10.9531C28.647 10.9247 28.5347 10.9181 28.4243 10.9336C28.314 10.9492 28.2078 10.9867 28.1121 11.0439C28.0164 11.101 27.9331 11.1767 27.8671 11.2665C27.801 11.3563 27.7536 11.4583 27.7275 11.5667C27.7014 11.6751 27.6972 11.7875 27.7152 11.8975C27.7331 12.0076 27.7729 12.1129 27.8321 12.2073C27.8913 12.3018 27.9687 12.3834 28.0599 12.4475C28.1511 12.5117 28.2541 12.5569 28.363 12.5806Z" fill="black"/>
<path d="M30.2333 23.9236C30.8957 23.9236 31.5432 23.7272 32.0939 23.3592C32.6447 22.9913 33.0739 22.4682 33.3273 21.8562C33.5809 21.2443 33.6472 20.571 33.5179 19.9213C33.3887 19.2717 33.0697 18.675 32.6014 18.2066C32.133 17.7383 31.5363 17.4193 30.8867 17.2901C30.237 17.1608 29.5637 17.2271 28.9518 17.4806C28.3398 17.7341 27.8167 18.1633 27.4488 18.7141C27.0808 19.2648 26.8844 19.9123 26.8844 20.5747C26.8844 21.4629 27.2372 22.3147 27.8653 22.9427C28.4933 23.5708 29.3451 23.9236 30.2333 23.9236ZM30.2333 18.9002C30.5645 18.9002 30.8882 18.9984 31.1636 19.1824C31.439 19.3664 31.6536 19.6279 31.7804 19.9338C31.9071 20.2398 31.9402 20.5765 31.8757 20.9013C31.811 21.2261 31.6515 21.5245 31.4174 21.7587C31.1832 21.9929 30.8848 22.1523 30.56 22.217C30.2352 22.2815 29.8985 22.2484 29.5925 22.1217C29.2866 21.9949 29.025 21.7803 28.8411 21.5049C28.6571 21.2295 28.5589 20.9059 28.5589 20.5747C28.5589 20.1306 28.7353 19.7047 29.0493 19.3906C29.3634 19.0766 29.7893 18.9002 30.2333 18.9002Z" fill="black"/>
</svg>
